<mxfile host="app.diagrams.net" modified="2022-11-27T20:13:09.890Z" agent="5.0 (Windows NT 10.0; Win64; x64) AppleWebKit/537.36 (KHTML, like Gecko) Chrome/106.0.0.0 Safari/537.36 OPR/92.0.0.0" etag="18fpolm6m23-2fYIiv69" version="20.6.0" type="github">
  <diagram id="-aIOCYNb2xF6dWWP5XCr" name="Page-1">
    <mxGraphModel dx="997" dy="540" grid="1" gridSize="10" guides="1" tooltips="1" connect="1" arrows="1" fold="1" page="1" pageScale="1" pageWidth="850" pageHeight="1100" math="0" shadow="0">
      <root>
        <mxCell id="0" />
        <mxCell id="1" parent="0" />
        <mxCell id="hZ2LAy9PyXOg1ei-82HZ-7" value="" style="rounded=1;whiteSpace=wrap;html=1;" parent="1" vertex="1">
          <mxGeometry x="360" y="480" width="120" height="230" as="geometry" />
        </mxCell>
        <mxCell id="hZ2LAy9PyXOg1ei-82HZ-6" value="" style="rounded=1;whiteSpace=wrap;html=1;" parent="1" vertex="1">
          <mxGeometry x="370" y="490" width="100" height="210" as="geometry" />
        </mxCell>
        <mxCell id="hZ2LAy9PyXOg1ei-82HZ-8" value="" style="rounded=1;whiteSpace=wrap;html=1;" parent="1" vertex="1">
          <mxGeometry x="520" y="480" width="120" height="230" as="geometry" />
        </mxCell>
        <mxCell id="hZ2LAy9PyXOg1ei-82HZ-9" value="" style="rounded=1;whiteSpace=wrap;html=1;" parent="1" vertex="1">
          <mxGeometry x="530" y="490" width="100" height="210" as="geometry" />
        </mxCell>
        <mxCell id="hZ2LAy9PyXOg1ei-82HZ-10" value="&lt;font style=&quot;font-size: 11px;&quot;&gt;Title: Chicken&lt;br&gt;Name: Aaron&lt;/font&gt;" style="rounded=0;whiteSpace=wrap;html=1;" parent="1" vertex="1">
          <mxGeometry x="375" y="580" width="90" height="26" as="geometry" />
        </mxCell>
        <mxCell id="hZ2LAy9PyXOg1ei-82HZ-11" value="&lt;span style=&quot;font-size: 11px;&quot;&gt;Title: PeaNuts&lt;/span&gt;&lt;br style=&quot;font-size: 11px;&quot;&gt;&lt;span style=&quot;font-size: 11px;&quot;&gt;Name: Jake&lt;/span&gt;" style="rounded=0;whiteSpace=wrap;html=1;" parent="1" vertex="1">
          <mxGeometry x="375" y="611" width="90" height="25" as="geometry" />
        </mxCell>
        <mxCell id="hZ2LAy9PyXOg1ei-82HZ-12" value="&lt;span style=&quot;font-size: 11px;&quot;&gt;Title: Peas&lt;/span&gt;&lt;br style=&quot;font-size: 11px;&quot;&gt;&lt;span style=&quot;font-size: 11px;&quot;&gt;Name: Tim&lt;/span&gt;" style="rounded=0;whiteSpace=wrap;html=1;" parent="1" vertex="1">
          <mxGeometry x="375" y="641" width="90" height="25" as="geometry" />
        </mxCell>
        <mxCell id="hZ2LAy9PyXOg1ei-82HZ-13" value="&lt;span style=&quot;font-size: 11px;&quot;&gt;Title: Meatballs&lt;/span&gt;&lt;br style=&quot;font-size: 11px;&quot;&gt;&lt;span style=&quot;font-size: 11px;&quot;&gt;Name: Timi&lt;/span&gt;" style="rounded=0;whiteSpace=wrap;html=1;" parent="1" vertex="1">
          <mxGeometry x="375" y="670" width="90" height="26" as="geometry" />
        </mxCell>
        <mxCell id="hZ2LAy9PyXOg1ei-82HZ-15" value="Entry" style="rounded=0;whiteSpace=wrap;html=1;" parent="1" vertex="1">
          <mxGeometry x="375" y="512" width="90" height="15" as="geometry" />
        </mxCell>
        <mxCell id="hZ2LAy9PyXOg1ei-82HZ-16" value="Entry" style="rounded=0;whiteSpace=wrap;html=1;" parent="1" vertex="1">
          <mxGeometry x="375" y="529" width="90" height="15" as="geometry" />
        </mxCell>
        <mxCell id="hZ2LAy9PyXOg1ei-82HZ-17" value="Entry" style="rounded=0;whiteSpace=wrap;html=1;" parent="1" vertex="1">
          <mxGeometry x="375" y="546" width="90" height="15" as="geometry" />
        </mxCell>
        <mxCell id="hZ2LAy9PyXOg1ei-82HZ-18" value="Entry" style="rounded=0;whiteSpace=wrap;html=1;" parent="1" vertex="1">
          <mxGeometry x="375" y="495" width="90" height="15" as="geometry" />
        </mxCell>
        <mxCell id="hZ2LAy9PyXOg1ei-82HZ-19" value="&lt;font style=&quot;font-size: 9px;&quot;&gt;Add button&lt;/font&gt;" style="rounded=0;whiteSpace=wrap;html=1;" parent="1" vertex="1">
          <mxGeometry x="420" y="563" width="45" height="15" as="geometry" />
        </mxCell>
        <mxCell id="hZ2LAy9PyXOg1ei-82HZ-20" value="&lt;font size=&quot;1&quot;&gt;Button&lt;/font&gt;" style="rounded=0;whiteSpace=wrap;html=1;" parent="1" vertex="1">
          <mxGeometry x="375" y="563" width="45" height="15" as="geometry" />
        </mxCell>
        <mxCell id="hZ2LAy9PyXOg1ei-82HZ-21" value="&lt;b&gt;TItle&lt;/b&gt;: Chicken&lt;br&gt;&lt;b&gt;Aorther&lt;/b&gt;: Aaron&lt;br&gt;&lt;b&gt;Ingredients&lt;/b&gt;: Chicken, Pie&lt;br&gt;&lt;b&gt;Steps&lt;/b&gt;: Eat Pie, Cook Chicken" style="text;html=1;strokeColor=none;fillColor=none;align=center;verticalAlign=middle;whiteSpace=wrap;rounded=0;fontSize=11;" parent="1" vertex="1">
          <mxGeometry x="530" y="499" width="100" height="101" as="geometry" />
        </mxCell>
        <mxCell id="hZ2LAy9PyXOg1ei-82HZ-22" value="&lt;font size=&quot;1&quot;&gt;Button&lt;/font&gt;" style="rounded=0;whiteSpace=wrap;html=1;" parent="1" vertex="1">
          <mxGeometry x="535" y="655" width="45" height="15" as="geometry" />
        </mxCell>
        <mxCell id="hZ2LAy9PyXOg1ei-82HZ-23" value="&lt;font size=&quot;1&quot;&gt;Button&lt;/font&gt;" style="rounded=0;whiteSpace=wrap;html=1;" parent="1" vertex="1">
          <mxGeometry x="580" y="655" width="45" height="15" as="geometry" />
        </mxCell>
        <mxCell id="hZ2LAy9PyXOg1ei-82HZ-24" value="MainPage" style="text;html=1;strokeColor=none;fillColor=none;align=center;verticalAlign=middle;whiteSpace=wrap;rounded=0;fontSize=11;" parent="1" vertex="1">
          <mxGeometry x="390" y="440" width="60" height="30" as="geometry" />
        </mxCell>
        <mxCell id="hZ2LAy9PyXOg1ei-82HZ-25" value="RecipeList" style="text;html=1;strokeColor=none;fillColor=none;align=center;verticalAlign=middle;whiteSpace=wrap;rounded=0;fontSize=11;" parent="1" vertex="1">
          <mxGeometry x="550" y="440" width="60" height="30" as="geometry" />
        </mxCell>
      </root>
    </mxGraphModel>
  </diagram>
</mxfile>
